<?xml version="1.0" encoding="UTF-8"?>
<svg width="1476px" height="808px" viewBox="0 0 1476 808" version="1.1" xmlns="http://www.w3.org/2000/svg" xmlns:xlink="http://www.w3.org/1999/xlink">
    <!-- Generator: Sketch 55.2 (78181) - https://sketchapp.com -->
    <title>pv-logo-lite</title>
    <desc>Created with Sketch.</desc>
    <defs>
        <radialGradient cx="58.4086755%" cy="46.9549906%" fx="58.4086755%" fy="46.9549906%" r="80.9720963%" gradientTransform="translate(0.584087,0.469550),scale(1.000000,0.987431),rotate(76.910718),translate(-0.584087,-0.469550)" id="radialGradient-1">
            <stop stop-color="#E7CF6A" offset="0%"></stop>
            <stop stop-color="#DCB01F" offset="100%"></stop>
        </radialGradient>
        <path d="M498.712025,479.024351 C512.992803,470.556641 523.085606,463.323754 528.990433,457.32569 C534.895261,451.327626 542.147735,441.095049 550.747855,426.62796 C586.745202,468.320063 613.120021,500.689545 629.872314,523.736403 C640.860263,538.853003 655.061448,559.68246 668.830172,586.826213 C673.645609,596.319396 680.643799,612.314416 689.824742,634.811272 C698.373788,660.748619 702.003171,683.179976 700.712892,702.105342 C699.422613,721.030708 691.479053,740.725013 676.882213,761.188255 C663.554323,774.366447 652.711722,783.520926 644.354411,788.651693 C635.9971,793.782459 623.195678,799.143649 605.950145,804.735262 C580.349493,809.463215 557.989367,808.627485 538.869765,802.228075 C517.149435,794.958189 499.372864,777.411176 485.540055,749.587035 C473.57566,720.542973 465.347384,697.793366 460.855226,681.338214 C456.363069,664.883062 451.364547,639.181788 445.859661,604.234392 C442.279637,579.695163 439.799846,560.816477 438.420287,547.598333 C437.040729,534.380188 435.480493,514.549641 433.739581,488.106691 C447.302087,489.316893 457.347173,489.558871 463.87484,488.832625 C470.402507,488.106379 479.955341,485.692772 492.533343,481.591802 C499.871815,518.912121 507.868466,548.316731 516.523294,569.805633 C525.178123,591.294535 539.214897,616.961554 558.633615,646.806691 C554.227525,610.84702 546.739333,579.475161 536.16904,552.691115 C528.182016,532.452807 515.696344,507.897219 498.712025,479.024351 Z M467.200149,294.088058 C476.253199,267.961122 483.351373,248.38449 488.49467,235.358165 C493.637968,222.331839 501.885436,203.042874 513.237074,177.491269 C529.785093,144.042221 542.300805,120.359184 550.784212,106.442159 C559.267619,92.5251339 571.082827,76.293307 586.229837,57.746678 C603.411975,39.3866108 618.422505,26.232259 631.261426,18.2836226 C644.100348,10.3349863 658.247819,4.76386563 673.703839,1.57026069 C688.789603,-1.58348979 704.377323,0.0133126816 720.466997,6.36066809 C736.556672,12.7080235 750.46977,21.334841 762.20629,32.2411206 C774.323003,43.2960935 784.038213,58.2498646 791.351919,77.1024338 C798.665625,95.955003 799.554157,116.411756 794.017515,138.472692 C786.958142,158.65672 778.297586,175.532902 768.035847,189.101239 C757.774108,202.669576 736.319034,225.61306 703.670625,257.931691 C674.235193,284.002437 651.192729,303.472756 634.543233,316.342648 C617.893737,329.212541 592.09267,347.497777 557.140033,371.198356 C554.143987,351.212471 543.800474,333.735943 526.109495,318.768775 C508.418516,303.801606 488.782067,295.574701 467.200149,294.088058 Z M530.050774,315.156691 C554.30802,300.832517 576.683631,283.876207 597.177607,264.287764 C617.671583,244.69932 632.395972,223.505629 641.350774,200.706691 C617.872458,213.648215 596.422458,230.048215 577.000774,249.906691 C557.57909,269.765167 541.92909,291.515167 530.050774,315.156691 Z M395.574428,313.079342 C383.551794,322.31148 375.220343,330.027588 370.580074,336.227668 C365.939805,342.427748 361.00992,352.430731 355.790418,366.236617 C330.575779,354.019769 305.538749,345.770886 280.679328,341.489966 C255.819908,337.209046 230.343723,336.431288 204.250774,339.156691 C229.054187,352.322643 253.006481,361.037904 276.107654,365.302475 C299.208828,369.567046 325.364618,371.219268 354.575024,370.259141 C351.84957,385.971272 350.891812,397.503789 351.701752,404.856691 C352.511692,412.209594 355.864675,422.421725 361.760701,435.493085 C316.638257,445.149908 282.819292,451.347215 260.303806,454.085005 C237.788319,456.822796 205.383928,458.677977 163.090631,459.650548 C126.01196,459.650548 96.233073,455.479747 73.7539694,447.138143 C51.2748658,438.79654 33.5898151,427.256401 20.6988172,412.517725 C8.607853,396.722915 1.84179506,379.312386 0.400643416,360.286138 C-1.04050822,341.25989 1.40630752,322.356223 7.74109066,303.575138 C12.9535235,286.251266 23.1994131,269.732469 38.4787594,254.018746 C53.7581058,238.305023 71.0374845,228.684414 90.3168956,225.15692 C112.39789,222.347871 134.456135,222.777099 156.49163,226.444604 C178.527125,230.112108 207.175918,237.487527 242.438009,248.57086 C272.545916,259.157283 296.833868,268.340303 315.301865,276.119918 C333.769861,283.899533 360.527382,296.219341 395.574428,313.079342 Z M457.300774,464.856691 C431.312909,464.856691 406.826852,455.776663 390.170208,439.519473 C374.437592,424.164149 365.800774,402.293294 365.800774,379.356691 C365.800774,354.508178 386.263077,327.064217 396.962494,318.252607 C409.206954,308.168562 433.358988,293.856691 457.300774,293.856691 C507.834829,293.856691 548.800774,332.136345 548.800774,379.356691 C548.800774,426.577038 507.834829,464.856691 457.300774,464.856691 Z" id="path-2"></path>
        <linearGradient x1="50%" y1="-8.78693027%" x2="50%" y2="106.265003%" id="linearGradient-3">
            <stop stop-color="#C7C5C5" offset="0%"></stop>
            <stop stop-color="#FFFFFF" offset="26.0815858%"></stop>
            <stop stop-color="#FFFFFF" offset="79.3094321%"></stop>
            <stop stop-color="#C7C5C5" offset="100%"></stop>
        </linearGradient>
        <path d="M723,328 L754.5,328 C772.5,328 784.5,329.5 792,331 C801,332.5 808.5,338.5 814.5,344.5 C820.5,352 823.5,361 823.5,371.5 C823.5,382 820.5,391 814.5,398.5 C808.5,406 801,410.5 790.5,412 C783,413.5 769.5,415 750,415 L738,415 L738,490 L721.5,490 L721.5,328 L723,328 Z M738,344.5 L738,398.5 L765,398.5 C775.5,398.5 784.5,397 789,395.5 C793.5,394 798,391 801,386.5 C804,382 805.5,377.5 805.5,371.5 C805.5,365.5 804,361 801,356.5 C798,352 795,349 789,347.5 C784.5,346 777,344.5 765,344.5 L738,344.5 Z M951,449.5 L964.5,457 C960,466 955.5,472 949.5,476.5 C943.5,481 937.5,485.5 931.5,488.5 C924,491.5 916.5,493 907.5,493 C888,493 873,487 862.5,473.5 C852,461.5 846,446.5 846,430 C846,415 850.5,401.5 859.5,389.5 C871.5,374.5 886.5,367 906,367 C925.5,367 942,374.5 954,389.5 C963,400 967.5,413.5 967.5,430 L861,430 C861,443.5 865.5,455.5 874.5,464.5 C883.5,473.5 894,478 906,478 C912,478 918,476.5 924,475 C930,473.5 934.5,470.5 939,466 C943.5,461.5 946.5,457 951,449.5 Z M951,418 C949.5,410.5 946.5,403 942,398.5 C937.5,394 933,389.5 927,386.5 C921,383.5 913.5,382 907.5,382 C895.5,382 886.5,385 877.5,392.5 C871.5,398.5 867,406 864,416.5 L951,416.5 L951,418 Z M991.5,370 L1006.5,370 L1006.5,388 C1011,380.5 1015.5,376 1021.5,373 C1026,370 1032,368.5 1038,368.5 C1042.5,368.5 1047,370 1051.5,373 L1044,386.5 C1041,385 1038,385 1036.5,385 C1032,385 1026,386.5 1021.5,391 C1017,395.5 1012.5,401.5 1011,410.5 C1009.5,418 1008,431.5 1008,451 L1008,491.5 L993,491.5 L993,370 L991.5,370 Z M1113,325 L1113,340 C1107,337 1102.5,337 1098,337 C1095,337 1092,337 1090.5,338.5 C1089,340 1087.5,341.5 1087.5,343 C1087.5,344.5 1086,349 1086,355 L1086,371.5 L1110,371.5 L1110,385 L1086,385 L1086,490 L1071,490 L1071,385 L1056,385 L1056,371.5 L1071,371.5 L1071,353.5 C1071,344.5 1072.5,338.5 1074,335.5 C1075.5,332.5 1078.5,329.5 1081.5,326.5 C1086,325 1090.5,323.5 1095,323.5 C1099.5,322 1105.5,322 1113,325 Z M1234.5,449.5 L1248,457 C1243.5,466 1239,472 1233,476.5 C1227,481 1221,485.5 1215,488.5 C1207.5,491.5 1200,493 1191,493 C1171.5,493 1156.5,487 1146,473.5 C1135.5,461.5 1129.5,446.5 1129.5,430 C1129.5,415 1134,401.5 1143,389.5 C1155,374.5 1170,367 1189.5,367 C1209,367 1225.5,374.5 1237.5,389.5 C1246.5,400 1251,413.5 1251,430 L1144.5,430 C1144.5,443.5 1149,455.5 1158,464.5 C1167,473.5 1177.5,478 1189.5,478 C1195.5,478 1201.5,476.5 1207.5,475 C1213.5,473.5 1218,470.5 1222.5,466 C1227,461.5 1228.5,457 1234.5,449.5 Z M1234.5,418 C1233,410.5 1230,403 1225.5,398.5 C1221,394 1216.5,389.5 1210.5,386.5 C1204.5,383.5 1197,382 1191,382 C1179,382 1170,385 1161,392.5 C1155,398.5 1150.5,406 1147.5,416.5 L1234.5,416.5 L1234.5,418 Z M1393.5,395.5 L1381.5,403 C1371,389.5 1357.5,382 1338,382 C1323,382 1311,386.5 1302,395.5 C1293,404.5 1287,416.5 1287,430 C1287,439 1288.5,446.5 1293,454 C1297.5,461.5 1303.5,467.5 1311,472 C1318.5,476.5 1327.5,478 1336.5,478 C1354.5,478 1368,470.5 1378.5,457 L1390.5,464.5 C1384.5,473.5 1377,479.5 1368,484 C1359,488.5 1347,491.5 1335,491.5 C1317,491.5 1300.5,485.5 1288.5,473.5 C1276.5,461.5 1270.5,446.5 1270.5,430 C1270.5,418 1273.5,407.5 1279.5,398.5 C1285.5,388 1293,380.5 1303.5,376 C1314,371.5 1324.5,367 1338,367 C1345.5,367 1353,368.5 1360.5,370 C1368,373 1374,376 1378.5,379 C1386,383.5 1390.5,389.5 1393.5,395.5 Z M1437,326.5 L1452,326.5 L1452,370 L1476,370 L1476,383.5 L1452,383.5 L1452,488.5 L1437,488.5 L1437,383.5 L1416,383.5 L1416,370 L1437,370 L1437,326.5 Z" id="path-4"></path>
        <linearGradient x1="50%" y1="-8.78693027%" x2="50%" y2="106.265003%" id="linearGradient-5">
            <stop stop-color="#C7C5C5" offset="0%"></stop>
            <stop stop-color="#FFFFFF" offset="26.0815858%"></stop>
            <stop stop-color="#FFFFFF" offset="79.3094321%"></stop>
            <stop stop-color="#C7C5C5" offset="100%"></stop>
        </linearGradient>
        <path d="M799.5,533.5 L817.5,533.5 L870,658 L924,533.5 L942,533.5 L873,694 L870,694 L799.5,533.5 Z M1066.5,653.5 L1080,661 C1075.5,670 1071,676 1065,680.5 C1059,685 1053,689.5 1047,692.5 C1039.5,695.5 1032,697 1023,697 C1003.5,697 988.5,691 978,677.5 C967.5,665.5 961.5,650.5 961.5,634 C961.5,619 966,605.5 975,593.5 C987,578.5 1002,571 1021.5,571 C1041,571 1057.5,578.5 1069.5,593.5 C1078.5,604 1083,617.5 1083,634 L976.5,634 C976.5,647.5 981,659.5 990,668.5 C999,677.5 1009.5,682 1021.5,682 C1027.5,682 1033.5,680.5 1039.5,679 C1045.5,677.5 1050,674.5 1054.5,670 C1059,665.5 1062,661 1066.5,653.5 Z M1066.5,622 C1065,614.5 1062,607 1057.5,602.5 C1053,598 1048.5,593.5 1042.5,590.5 C1036.5,587.5 1029,586 1023,586 C1011,586 1002,589 993,596.5 C987,602.5 982.5,610 979.5,620.5 L1066.5,620.5 L1066.5,622 Z M1111.5,574 L1126.5,574 L1126.5,595 C1132.5,587.5 1140,581.5 1147.5,577 C1155,572.5 1162.5,571 1171.5,571 C1180.5,571 1188,572.5 1195.5,578.5 C1203,583 1207.5,589 1210.5,596.5 C1213.5,604 1215,616 1215,632.5 L1215,694 L1200,694 L1200,637 C1200,623.5 1200,614.5 1198.5,610 C1197,602.5 1194,596.5 1188,592 C1182,587.5 1176,586 1168.5,586 C1159.5,586 1150.5,589 1143,595 C1135.5,601 1131,608.5 1128,617.5 C1126.5,623.5 1126.5,634 1126.5,649 L1126.5,692.5 L1111.5,692.5 L1111.5,574 Z M1261.5,530.5 L1276.5,530.5 L1276.5,574 L1300.5,574 L1300.5,587.5 L1276.5,587.5 L1276.5,692.5 L1261.5,692.5 L1261.5,587.5 L1240.5,587.5 L1240.5,574 L1261.5,574 L1261.5,530.5 Z" id="path-6"></path>
    </defs>
    <g id="Page-1" stroke="none" stroke-width="1" fill="none" fill-rule="evenodd">
        <g id="pv-logo-lite">
            <g id="Combined-Shape">
                <use fill="#E7CF6A" xlink:href="#path-2"></use>
                <use fill="url(#radialGradient-1)" xlink:href="#path-2"></use>
            </g>
            <g id="Combined-Shape" fill-rule="nonzero">
                <use fill="#FFFFFF" xlink:href="#path-4"></use>
                <use fill="url(#linearGradient-3)" xlink:href="#path-4"></use>
            </g>
            <g id="Combined-Shape" fill-rule="nonzero">
                <use fill="#FFFFFF" xlink:href="#path-6"></use>
                <use fill="url(#linearGradient-5)" xlink:href="#path-6"></use>
            </g>
        </g>
    </g>
</svg>